<?xml version="1.0" encoding="utf-8"?>
<!-- Generator: Adobe Illustrator 21.0.0, SVG Export Plug-In . SVG Version: 6.00 Build 0)  -->
<svg version="1.1" id="Layer_1" xmlns="http://www.w3.org/2000/svg" xmlns:xlink="http://www.w3.org/1999/xlink" x="0px" y="0px"
	 viewBox="0 0 300 356" style="enable-background:new 0 0 300 356;" xml:space="preserve">
<style type="text/css">
	.st0{fill:#F7E600;}
</style>
<g transform="translate(0.000000,356.000000) scale(0.100000,-0.100000)">
	<path class="st0" d="M1308,3553c8-3,12-27,12-68c0-60-1-63-27-71c-16-4-31-7-34-6c-4,1-22-3-40-9c-19-6-41-12-49-14s-28-9-45-16
		c-16-7-32-13-35-13c-3-1-11-5-17-9c-7-5-13-5-13-1s-8,0-17-8c-10-9-36-25-59-36c-22-11-46-28-53-36c-8-9-23-16-34-16s-17-3-14-7
		c4-3-12-20-36-37c-23-17-50-41-61-54c-10-13-21-21-23-18c-7,7-163-151-163-165c0-6,33,23,73,64c112,115,254,225,357,277
		c68,34,218,80,264,80c17,0,36,4,41,8c6,4,9,40,7,85c-3,72-5,77-25,76C1305,3559,1301,3556,1308,3553z"/>
	<path class="st0" d="M1397,3389c7-7,15-10,18-7s-2,9-12,12C1389,3400,1388,3399,1397,3389z"/>
	<path class="st0" d="M1545,3370c3-5,8-10,11-10c2,0,4,5,4,10c0,6-5,10-11,10C1544,3380,1542,3376,1545,3370z"/>
	<path class="st0" d="M1855,3285c10-8,43-23,72-32c32-10,52-22,49-28c-3-8,4-10,20-7c17,3,24,0,24-12c0-9,7-16,15-16
		c20,0,110-85,130-123c9-18,25-47,35-65c11-18,20-34,20-37c2-18,14-35,26-35c18,0,18-1-10,51c-43,81-61,109-68,109c-5,0-8,7-8,15
		c0,9-7,18-15,21c-8,4-15,11-16,18c0,15-109,93-156,111c-21,9-45,19-53,24c-9,5-31,11-50,15C1837,3301,1836,3300,1855,3285z"/>
	<path class="st0" d="M1601,3284c0-11,3-14,6-6c3,7,2,16-1,19C1603,3301,1600,3295,1601,3284z"/>
	<path class="st0" d="M1685,3420c-3-6,1-7,9-4c18,7,21,14,7,14C1695,3430,1688,3426,1685,3420z"/>
	<path class="st0" d="M525.9,2889.1c-9.6-16.4-15.1-32-11.7-34.2c9.2-6,39.7,42.1,34.4,54C546,2914.2,535.5,2905.5,525.9,2889.1z"/>
	<path class="st0" d="M1363,3105c-3-9-3-19,1-22c3-4,6,1,6,10c0,8,6,18,13,20c9,4,9,6-1,6C1375,3120,1367,3113,1363,3105z"/>
	<path class="st0" d="M1720,3205c0-8,2-15,4-15s6,7,10,15c3,8,1,15-4,15C1724,3220,1720,3213,1720,3205z"/>
	<path class="st0" d="M1290,3196c7-7,14-6,21,1c9,9,7,12-9,10C1288,3206,1284,3202,1290,3196z"/>
	<path class="st0" d="M1731,3094c0-11,3-14,6-6c3,7,2,16-1,19C1733,3111,1730,3105,1731,3094z"/>
	<path class="st0" d="M1430,3271c0-43,17-47,22-6c3,24,0,35-9,35C1435,3300,1430,3288,1430,3271z"/>
	<path class="st0" d="M1500,3070c0-5,9-8,20-7c21,1,18,10-5,13C1507,3077,1500,3074,1500,3070z"/>
	<path class="st0" d="M1555,3240c-3-5,1-10,10-10s13,5,10,10c-3,6-8,10-10,10S1558,3246,1555,3240z"/>
	<path class="st0" d="M1765,3360c-3-6,1-7,9-4c18,7,21,14,7,14C1775,3370,1768,3366,1765,3360z"/>
	<path class="st0" d="M572,2951c-8-5-12-17-10-27c3-15,6-14,21,9C601,2960,596,2967,572,2951z"/>
	<path class="st0" d="M1200,3116c0-2,7-9,15-16c9-7,15-8,15-2c0,5-7,12-15,16C1207,3117,1200,3118,1200,3116z"/>
	<path class="st0" d="M2245,2910c-3-5,1-10,10-10s13,5,10,10c-3,6-8,10-10,10S2248,2916,2245,2910z"/>
	<path class="st0" d="M1872,3170c0-14,2-19,5-12c2,6,2,18,0,25C1874,3189,1872,3184,1872,3170z"/>
	<path class="st0" d="M1630,3131c0-6,4-13,10-16s7,1,4,9C1637,3142,1630,3145,1630,3131z"/>
	<path class="st0" d="M485,2830c6-9-10-15-65-23c-14-3-6-5,18-6c24,0,41-4,39-8c-12-20-35-113-28-113c5,0,11,17,14,38
		c4,20,16,55,27,77c24,47,24,45,4,45C486,2840,482,2836,485,2830z"/>
	<path class="st0" d="M2284,2802c3-22,9-49,14-59c6-10,10-21,11-25c1-5,3-8,6-8s8,0,11,0c4,0,2,6-4,13c-6,6-11,15-11,20
		c0,4-3,17-6,30c-4,13-7,31-9,40C2291,2849,2281,2840,2284,2802z"/>
	<path class="st0" d="M2319,2679c-6-17,16-86,23-73c3,5,0,27-7,48C2329,2676,2321,2687,2319,2679z"/>
	<path class="st0" d="M435,2657c-4-10-5-21-1-24c10-10,18,4,13,24C443,2674,443,2674,435,2657z"/>
	<path class="st0" d="M431,2598c-1-16,4-28,9-28c12,0,12,8,0,35C432,2623,431,2622,431,2598z"/>
	<path class="st0" d="M433,2547c3-9,2-19-4-22c-5-4-6-12-2-18c5-7,8-19,8-27c2-65,19-180,27-180c5,0,7,8,4,18c-6,22-18,151-18,197
		c0,19-5,38-11,42S429,2557,433,2547z"/>
	<path class="st0" d="M2337,2546c-4-10-1-13,8-9c8,3,12,9,9,14C2347,2563,2343,2562,2337,2546z"/>
	<path class="st0" d="M2385,2494c-20-22-31-42-28-52c5-11,11-8,27,14c12,16,32,39,45,52c20,19,21,22,6,22
		C2426,2530,2403,2514,2385,2494z"/>
	<path class="st0" d="M2455,2460c-3-11-3-24,0-30c3-5,8-20,10-32c3-13,14-41,24-63c11-22,26-55,33-72c7-18,17-33,22-33s5,15,2,33
		c-4,17-9,43-12,57c-7,41-13,52-24,45c-6-3-7,1-4,9c3,9,3,24-1,34c-5,9-9,22-10,27c-3,19-17,45-25,45C2465,2480,2459,2471,2455,2460
		z"/>
	<path class="st0" d="M1833,2446c9-7,17-23,17-34c0-12-8-26-17-31c-16-9-16-10-1-11c9,0,18,5,20,11s36,12,85,13c45,1,85,5,89,9
		s-4,7-17,7c-19,0-21,2-9,10c9,6,10,10,3,10c-6,0-15-4-18-10c-3-5-17-10-31-10c-17,0-23,4-18,12s2,9-9,5c-9-3-19-2-22,4
		c-4,5-13,2-23-8c-16-16-17-15-21,3c-3,20-19,34-36,34C1820,2459,1823,2453,1833,2446z"/>
	<path class="st0" d="M1647,2436c-17-13-17-14-1-18c14-2,12-6-9-15c-22-10-27-10-27,1c0,18-177-42-185-62c-3-9,0-10,14-3
		c10,6,22,7,26,3c5-4,4-1,0,7c-6,11-4,13,8,8c10-3,17-3,17,1s8,8,18,9c9,1,31,5,47,8l30,6l-27-21c-16-12-28-26-28-32c0-5,13,1,29,14
		c17,13,28,28,26,35c-5,16,12,27,20,13c4-6,17-4,37,6c17,9,48,17,70,19c45,3,64,15,24,15c-19,0-25,4-20,13c5,8,2,8-9-2
		c-9-7-17-10-17-6s-8,1-17-6c-15-12-16-12-10,4C1671,2453,1670,2453,1647,2436z"/>
	<path class="st0" d="M1775,2420c3-5,15-10,26-10s17,5,14,10c-3,6-15,10-26,10S1772,2426,1775,2420z"/>
	<path class="st0" d="M2360,2399c0-11,4-18,10-14c5,3,7,12,3,20C2366,2426,2360,2424,2360,2399z"/>
	<path class="st0" d="M2305,2378c12-55,21-61,21-13c1,32-3,45-13,45C2302,2410,2300,2402,2305,2378z"/>
	<path class="st0" d="M1752.1,2393.8c-0.5-5-12-8.8-25.9-7.2c-23.9,2.6-108.2-23.4-109.3-33.4c-0.2-2,17.1,0.2,38.8,4.8
		c20.6,4.8,54.4,10.2,74.7,12c22.3,1.6,37.1,8,38.1,17c0.9,8-2.4,15.3-7.3,15.9C1757.2,2403.3,1752.8,2399.7,1752.1,2393.8z"/>
	<path class="st0" d="M949.8,2223.5c3.9-4.3,9.3-3.9,10.7,0.9c1.8,5.7-1.6,12-6.3,13.4c-5.7,1.8-10.1,1-10.7-0.9
		C942.6,2234.1,944.9,2228.1,949.8,2223.5z"/>
	<path class="st0" d="M1485,2329c-3-4,2-6,10-5c21,3,28,13,10,13C1496,2337,1487,2333,1485,2329z"/>
	<path class="st0" d="M2385,2319c-9-28,1-35,15-10c6,12,16,18,22,15c7-4,8-3,4,4C2415,2347,2392,2342,2385,2319z"/>
	<path class="st0" d="M1405,2310c-3-5-1-10,4-10c6,0,11,5,11,10c0,6-2,10-4,10C1413,2320,1408,2316,1405,2310z"/>
	<path class="st0" d="M1875,2300c-3-6,1-7,9-4c18,7,21,14,7,14C1885,2310,1878,2306,1875,2300z"/>
	<path class="st0" d="M455,2259c6-30,15-37,15-11c0,11-4,23-9,27C455,2278,453,2271,455,2259z"/>
	<path class="st0" d="M2015,2260c-10-11-15-20-11-20c14,0,46,21,46,30C2050,2286,2034,2281,2015,2260z"/>
	<path class="st0" d="M1650,2251c0-4,11-6,25-3c14,2,25,6,25,8s-11,4-25,4S1650,2256,1650,2251z"/>
	<path class="st0" d="M1800,2250c0-6,10-11,23-11c42-3,52-5,85-13c18-4,30-11,28-15c-8-13-70-11-137,3c-63,13-114,14-127,2
		c-3-3,1-6,9-7c94-5,149-19,149-37c0-11,3-13,8-6c12,19,130,26,163,9c33-18,43-19,34-5c-3,6-1,10,5,10c27,0-3,18-39,24
		c-22,3-46,13-55,21c-8,9-18,16-21,15c-3,0-6,1-7,1c-2,1-22,3-46,4c-24,2-50,6-58,9S1800,2255,1800,2250z"/>
	<path class="st0" d="M846.2,2244.8c5.8,0.9,8.3,5.6,5.1,9.5c-3.8,4.6-10.9,5.2-14.7,2c-4.6-3.8-6.4-7.9-5.1-9.5
		C833.4,2244.5,839.6,2243.2,846.2,2244.8z"/>
	<path class="st0" d="M1558,2244c-5-5-28-11-50-13c-5-1-8-9-8-18c0-11,3-14,8-7c7,11,58,30,102,37c19,3,16,5-11,6
		C1579,2249,1561,2247,1558,2244z"/>
	<path class="st0" d="M776,2253.5c-5.1-2.7-6-8.1-1.7-10.6c5.1-3.1,12-1.4,14.6,2.9c3.1,5.1,3.4,9.6,1.7,10.6
		C788,2258,781.6,2257.1,776,2253.5z"/>
	<path class="st0" d="M2392,2233c-40-8-52-66-20-96c20-18,38-19,32-2c-4,8-10,15-15,15c-13,0-11,34,3,48c7,7,8,12,3,12s0,7,11,15
		c10,8,17,14,14,13C2417,2238,2405,2235,2392,2233z"/>
	<path class="st0" d="M589,2174c-21-22-21-24-4-18c26,9,45,24,45,35C630,2207,614,2200,589,2174z"/>
	<path class="st0" d="M2476,2217c3-10,9-15,12-12s0,11-7,18C2471,2232,2470,2231,2476,2217z"/>
	<path class="st0" d="M728.9,2223.9c5.8,0.5,12.5,2.9,13.8,5.6c0.9,1.8-2.8,5.8-7.3,7.9c-5.4,2.6-11.2-0.2-13.8-5.6
		C719.4,2227.3,722.2,2223.8,728.9,2223.9z"/>
	<path class="st0" d="M707.3,2190.8c1.5-1.3,11.4-0.5,21.9,1.1c11.2,2.4,15.8,6.3,11.2,10.2c-3.8,3.2-13.7,2.4-21.9-1.1
		C711.1,2196.8,705.8,2192.1,707.3,2190.8z"/>
	<path class="st0" d="M1571,2189c-18-11-31-23-27-26c3-3,14,1,24,10s28,18,40,20c28,4,41,17,16,17C1614,2210,1590,2201,1571,2189z"
		/>
	<path class="st0" d="M670.4,2172.1c4.8,1.4,8.3,7.5,6.6,13.3c-1.4,4.8-6.7,5.4-10.7,1.1c-5-4.5-7.4-10.4-6.6-13.3
		C660.3,2171.3,664.7,2170.5,670.4,2172.1z"/>
	<path class="st0" d="M776,2208c3-5,10-6,15-3c13,9,11,12-6,12C777,2217,773,2213,776,2208z"/>
	<path class="st0" d="M826,2208c3-4,11-5,19-1c21,7,19,12-4,10C830,2217,823,2212,826,2208z"/>
	<path class="st0" d="M1475,2189c-4-6-5-12-2-15c2-3,7,2,10,11C1490,2202,1484,2205,1475,2189z"/>
	<path class="st0" d="M451,2174c0-11,3-14,6-6c3,7,2,16-1,19C453,2191,450,2185,451,2174z"/>
	<path class="st0" d="M659,2209.7c6.3-0.2,17.8,3.1,24,7c4.9,4.6-0.4,5.1-13.9,1.2C655.7,2213.9,651.4,2210.6,659,2209.7z"/>
	<path class="st0" d="M453,2085c0-8,4-12,9-9s6,10,3,15C456,2104,453,2102,453,2085z"/>
	<path class="st0" d="M1702,2156c-24-7-40-15-37-18c6-6,95,20,95,28C1760,2171,1755,2170,1702,2156z"/>
	<path class="st0" d="M2485,2160c3-5,13-10,21-10s12,5,9,10c-3,6-13,10-21,10S2482,2166,2485,2160z"/>
	<path class="st0" d="M1405,2150c-9-15-16-85-8-76c3,3,7,16,7,28c1,13,5,29,10,36c4,7,6,16,3,18C1414,2159,1409,2156,1405,2150z"/>
	<path class="st0" d="M1515,2140c-3-6,1-7,9-4c18,7,21,14,7,14C1525,2150,1518,2146,1515,2140z"/>
	<path class="st0" d="M1735,2124c-20-15-12-17,19-5c11,4,15,10,10,13C1759,2136,1746,2132,1735,2124z"/>
	<path class="st0" d="M2497,2134c-8-8,1-24,14-24c5,0,9,7,9,15C2520,2140,2508,2145,2497,2134z"/>
	<path class="st0" d="M808.8,2116.2c-15.7-12.2-14.7-12.4,10.2-5.1c36.7,10,39.2,12.6,21.6,16.1
		C831.7,2128.9,817.6,2124.6,808.8,2116.2z"/>
	<path class="st0" d="M1588,2123c7-3,16-2,19,1c4,3-2,6-13,5C1583,2129,1580,2126,1588,2123z"/>
	<path class="st0" d="M1475,2109c-10-14-1-21,19-13c9,3,13,10,10,15C1497,2123,1483,2122,1475,2109z"/>
	<path class="st0" d="M745,2100c-3-5-2-10,4-10c5,0,13,5,16,10c3,6,2,10-4,10C756,2110,748,2106,745,2100z"/>
	<path class="st0" d="M1834,2098c-3-4,5-5,17-3c30,6,36,14,9,12C1848,2106,1836,2102,1834,2098z"/>
	<path class="st0" d="M980,2091c0-5,7-11,15-15c8-3,15-1,15,3c0,5-7,11-15,15C987,2097,980,2095,980,2091z"/>
	<path class="st0" d="M1800,2090c0-5,5-10,10-10c6,0,10,5,10,10c0,6-4,10-10,10C1805,2100,1800,2096,1800,2090z"/>
	<path class="st0" d="M2467,2080c-3-11-13-20-22-20c-26,0-44-30-45-72c0-41,17-50,40-23c10,13,10,19-4,34c-17,18-15,20,24,42
		c25,14,39,28,35,37c-2,7,0,10,5,7c6-3,10-1,10,4C2510,2109,2472,2100,2467,2080z"/>
	<path class="st0" d="M2532,2041c-12-25-22-49-22-53c0-13,20-9,20,4c0,6,7,19,16,29c8,9,14,28,12,41C2555,2083,2552,2081,2532,2041z
		"/>
	<path class="st0" d="M795,2069c-62-14-62-14-81-29c-9-8-19-14-21-12c-8,6-63-47-63-60c1-8,6-6,15,6c8,11,20,16,30,12c9-3,14-2,11,3
		c-8,12,50,51,82,55c16,2,34,6,41,10c6,4,27,9,45,12c27,3,35,0,39-16c3-10,0-23-7-28c-17-14-55-21-61-12c-3,4-15,10-27,13
		c-23,6-23,6,2-14c30-25,76-19,103,12C945,2072,899,2092,795,2069z"/>
	<path class="st0" d="M643,2045c-15-13-22-25-15-25c6,0,12,4,12,10c0,5,12,16,28,24c15,8,22,15,15,16C676,2070,658,2059,643,2045z"
		/>
	<path class="st0" d="M1410,2040c0-5,7-10,16-10c8,0,12,5,9,10c-3,6-10,10-16,10C1414,2050,1410,2046,1410,2040z"/>
	<path class="st0" d="M467,1983c8-50,13-55,13-10c0,20-4,38-9,42C465,2018,464,2005,467,1983z"/>
	<path class="st0" d="M895.5,2253.8c-6.3,0.4-12.7-4.5-10.9-10.7c2.1-16,15.2-18.2,21.7-2.4c3,7.4,4.8,14.3,4.4,13.3
		C909.8,2254.4,903.1,2253.9,895.5,2253.8z"/>
	<path class="st0" d="M876,1919.8c4.9-4,11-6,12.1-4.1c2,2.5,15.9,6.7,30.9,9.2c15.3,3.9,28.5,11.2,30,18.1c2,6.1,9.2,19,16.8,27.5
		c7.6,8.5-0.8,3.1-18.5-11.9s-42.9-27.6-56.2-29.1C872,1927.9,868.6,1925.7,876,1919.8z"/>
	<path class="st0" d="M740,1955c-7-8-8-15-2-15c5,0,15,7,22,15s8,15,2,15C757,1970,747,1963,740,1955z"/>
	<path class="st0" d="M2525,1912c-6-4-11-15-13-25c-3-16,0-17,17-7c22,11,27,25,13,34C2538,1916,2530,1916,2525,1912z"/>
	<path class="st0" d="M470,1881c0-6,5-13,10-16c6-3,10,1,10,9c0,9-4,16-10,16C475,1890,470,1886,470,1881z"/>
	<path class="st0" d="M2543,1818c-2-16,1-18,10-9c7,7,8,14,1,21C2548,1836,2544,1832,2543,1818z"/>
	<path class="st0" d="M475,1810c3-5,8-10,11-10c2,0,4,5,4,10c0,6-5,10-11,10C474,1820,472,1816,475,1810z"/>
	<path class="st0" d="M2440,1783c0-17,51-16,75,1c17,12,14,14-28,12C2457,1795,2440,1791,2440,1783z"/>
	<path class="st0" d="M482,1768c2-16,6-24,11-19s5,17-2,28C482,1793,481,1792,482,1768z"/>
	<path class="st0" d="M1478,1745c-4-4,2-23,13-42c19-33,23-81,8-93c-4-3-9-15-13-27c-5-17-3-23,7-23c17,0,29,37,32,98
		c1,25-2,42-9,42c-6,0-4,5,4,10c12,8,12,10,1,10c-8,0-19,7-25,16C1490,1744,1482,1748,1478,1745z"/>
	<path class="st0" d="M2450,1699c0-11,4-18,10-14c5,3,7,12,3,20C2456,1726,2450,1724,2450,1699z"/>
	<path class="st0" d="M2365,1670c3-5,8-10,11-10c2,0,4,5,4,10c0,6-5,10-11,10C2364,1680,2362,1676,2365,1670z"/>
	<path class="st0" d="M2455,1631c1-21,5-44,9-50s2-11-5-11c-8,0-8-4-1-13c13-15,13-107,0-123c-5-7-3-14,7-18c8-3,15-1,16,4
		c3,41,0,106-7,165c-4,39-7,73-6,78c1,4-2,7-7,7S2453,1653,2455,1631z"/>
	<path class="st0" d="M497,1613c-3-5-1-17,4-28c6-17,7-16,6,8C506,1621,504,1625,497,1613z"/>
	<path class="st0" d="M1293,1575c-13-9-23-23-23-32c0-14,2-14,19,1c27,24,111,13,111-15c0-5-8-9-17-10c-12,0-13-2-5-6
		c7-3,21,2,30,10s23,16,31,19c23,7-29,34-79,42C1327,1589,1309,1586,1293,1575z"/>
	<path class="st0" d="M2360,1560c-8-5-12-12-9-15c4-3,12,1,19,10C2384,1572,2381,1574,2360,1560z"/>
	<path class="st0" d="M1227,1553c-4-3-7-13-7-22c1-13,3-13,11,2C1242,1552,1239,1566,1227,1553z"/>
	<path class="st0" d="M1075,1539c-4-6-5-13-2-16c7-7,27,6,27,18S1083,1553,1075,1539z"/>
	<path class="st0" d="M2387,1533c-4-3-7-11-7-17s5-5,12,2c6,6,9,14,7,17C2396,1538,2390,1537,2387,1533z"/>
	<path class="st0" d="M1335,1510c3-5,10-10,16-10c5,0,9,5,9,10c0,6-7,10-16,10C1336,1520,1332,1516,1335,1510z"/>
	<path class="st0" d="M1195,1470c3-5,11-10,16-10c6,0,7,5,4,10c-3,6-11,10-16,10C1193,1480,1192,1476,1195,1470z"/>
	<path class="st0" d="M2398,1463c7-3,16-2,19,1c4,3-2,6-13,5C2393,1469,2390,1466,2398,1463z"/>
	<path class="st0" d="M540,1445c0-5,5-17,10-25s10-10,10-5c0,6-5,17-10,25S540,1451,540,1445z"/>
	<path class="st0" d="M1344,1428c-3-4,2-8,10-8s17,4,20,8c3,5-2,9-10,9S1347,1433,1344,1428z"/>
	<path class="st0" d="M1854,1412c3-5,0-13-6-15c-8-3-6-6,5-6c19-1,23,14,5,25C1852,1420,1850,1419,1854,1412z"/>
	<path class="st0" d="M1738,1403c7-3,16-2,19,1c4,3-2,6-13,5C1733,1409,1730,1406,1738,1403z"/>
	<path class="st0" d="M1446,1364c-4-9-4-19-1-22c2-3,7,3,11,12s4,19,1,22C1455,1379,1450,1373,1446,1364z"/>
	<path class="st0" d="M2469,1338c-3-101,3-252,12-280c6-22,4-50-7-90c-8-32-12-64-8-70c4-7,3-8-4-4s-13,2-13-3c-3-20-5-26-24-68
		c-10-24-23-43-28-43c-4,0-5-5-2-10c4-6,1-18-7-27c-11-14-11-16,1-9c7,5,22,28,33,52c18,43,34,61,21,27c-3-10-2-15,2-10
		c5,4,9,17,11,30c1,12,3,25,3,30c1,4,7,7,15,7c9,0,12,7,9,20c-3,12,0,20,6,20c7,0,11,8,10,18c-1,9-1,34,0,54c1,28,5,36,16,32
		c26-10,38,7,13,20c-24,12-38,56-18,56c6,0,8,5,4,12c-16,26-25,220-11,235c4,4,27,1,50-6s50-12,60-12c9,0,17-7,17-15
		c0-22,47-41,63-25c9,10,9,12-3,11c-8-1-24-2-35-1c-17,1-18,3-5,11c13,9,13,10,0,10s-13,1,0,10c13,8,12,10-2,10c-10,0-21,0-24-1
		c-4,0-10,4-13,9c-6,9-108,42-130,42C2475,1380,2469,1361,2469,1338z"/>
	<path class="st0" d="M2335,1350c-3-5-1-10,4-10c6,0,11,5,11,10c0,6-2,10-4,10C2343,1360,2338,1356,2335,1350z"/>
	<path class="st0" d="M1805,1330c3-5,8-10,11-10c2,0,4,5,4,10c0,6-5,10-11,10C1804,1340,1802,1336,1805,1330z"/>
	<path class="st0" d="M1996,1282c-2-4-1-14,4-22c7-11,9-9,7,8C2006,1292,2004,1294,1996,1282z"/>
	<path class="st0" d="M1106,1237c3-10,9-15,12-12s0,11-7,18C1101,1252,1100,1251,1106,1237z"/>
	<path class="st0" d="M1529,1228c-12-5-27-7-33-5s-40-7-76-21c-82-30-138-40-173-31c-17,5-30,3-37-6c-15-18,134-11,181,8
		c52,23,195,47,264,46c80-2,87-1,80,12C1727,1243,1564,1241,1529,1228z"/>
	<path class="st0" d="M2424,1225c-3-8-3-18,0-23c3-6-1-15-9-22s-15-22-15-33c0-19,1-19,18-4c11,10,19,33,20,57
		C2441,1240,2434,1252,2424,1225z"/>
	<path class="st0" d="M620,1221c0-6,5-13,10-16c6-3,10,1,10,9c0,9-4,16-10,16C625,1230,620,1226,620,1221z"/>
	<path class="st0" d="M2655,1208c-2-7-6-33-9-58c-7-72-18-120-26-115c-4,2-5-7-2-20c2-14-1-39-8-55c-7-17-10-34-6-38
		c12-11,25,21,31,78c4,30,10,64,15,75c8,18,19,145,12,145C2661,1220,2657,1214,2655,1208z"/>
	<path class="st0" d="M1732,1198c2-7,12-16,22-21c28-11,28-5,0,16C1737,1205,1730,1207,1732,1198z"/>
	<path class="st0" d="M1131,1159c-64-12-72-18-25-17c23,1,53,7,65,14C1198,1171,1193,1171,1131,1159z"/>
	<path class="st0" d="M1035,1139c-11-17,1-21,15-4c8,9,8,15,2,15S1038,1145,1035,1139z"/>
	<path class="st0" d="M2377,1133c-4-3-7-11-7-17s5-5,12,2c6,6,9,14,7,17C2386,1138,2380,1137,2377,1133z"/>
	<path class="st0" d="M2135,1110c-3-5-1-10,4-10c6,0,11,5,11,10c0,6-2,10-4,10C2143,1120,2138,1116,2135,1110z"/>
	<path class="st0" d="M2258,1093c6-2,18-2,25,0c6,3,1,5-13,5S2251,1096,2258,1093z"/>
	<path class="st0" d="M830,1081c0-6,4-13,10-16s7,1,4,9C837,1092,830,1095,830,1081z"/>
	<path class="st0" d="M1425,1080c-3-5-2-10,4-10c5,0,13,5,16,10c3,6,2,10-4,10C1436,1090,1428,1086,1425,1080z"/>
	<path class="st0" d="M2180,1080c-8-5-11-12-7-16s13-2,19,4C2207,1083,2199,1092,2180,1080z"/>
	<path class="st0" d="M2393,1076c-9-11-9-15,0-19c7-3,14,3,14,14C2409,1093,2409,1093,2393,1076z"/>
	<path class="st0" d="M1580,1071c0-6,4-12,9-15c13-8,42,4,35,15C1617,1083,1580,1083,1580,1071z"/>
	<path class="st0" d="M2345,1071c-6-11,9-23,19-14c9,9,7,23-3,23C2355,1080,2349,1076,2345,1071z"/>
	<path class="st0" d="M1847,1040c-3-11-2-20,3-20c4,0,10,9,13,20s2,20-3,20C1856,1060,1850,1051,1847,1040z"/>
	<path class="st0" d="M1480,1040c0-5,4-10,9-10c6,0,13,5,16,10c3,6-1,10-9,10C1487,1050,1480,1046,1480,1040z"/>
	<path class="st0" d="M2322,1028c3-7,13-14,24-15c10-2,13,0,6,3c-6,3-10,10-6,15c3,5-2,9-11,9S2320,1034,2322,1028z"/>
	<path class="st0" d="M1520,1010c0-5,5-10,10-10c6,0,10,5,10,10c0,6-4,10-10,10C1525,1020,1520,1016,1520,1010z"/>
	<path class="st0" d="M2412,998c-7-7-12-23-12-37c1-24,2-24,16,8C2432,1006,2430,1016,2412,998z"/>
	<path class="st0" d="M2315,990c3-5,8-10,11-10c2,0,4,5,4,10c0,6-5,10-11,10C2314,1000,2312,996,2315,990z"/>
	<path class="st0" d="M1445,980c-3-5-1-10,4-10c6,0,11,5,11,10c0,6-2,10-4,10C1453,990,1448,986,1445,980z"/>
	<path class="st0" d="M1927,983c-4-3-7-11-7-17s5-5,12,2c6,6,9,14,7,17C1936,988,1930,987,1927,983z"/>
	<path class="st0" d="M2018,978c8-9,11-22,7-28c-3-5-1-10,4-10c17,0,13,26-6,41C2007,994,2006,993,2018,978z"/>
	<path class="st0" d="M2798,931c12-11,22-22,22-27c0-4,8-13,18-20c10-8,12-13,5-14c-7,0-13-5-13-11c0-5,5-7,10-4c6,3,10,1,10-4
		c0-6-4-11-10-11c-5,0-10-5-10-11c0-8,5-8,15,1c25,20,18,59-16,91c-17,16-36,29-43,29C2780,949,2785,941,2798,931z"/>
	<path class="st0" d="M1435,900c-3-6,1-7,9-4c18,7,21,14,7,14C1445,910,1438,906,1435,900z"/>
	<path class="st0" d="M1658,903c7-3,16-2,19,1c4,3-2,6-13,5C1653,909,1650,906,1658,903z"/>
	<path class="st0" d="M1770,900c0-5,5-10,11-10c5,0,7,5,4,10c-3,6-8,10-11,10C1772,910,1770,906,1770,900z"/>
	<path class="st0" d="M2380,899c0-5,5-7,10-4c6,3,10,8,10,11c0,2-4,4-10,4C2385,910,2380,905,2380,899z"/>
	<path class="st0" d="M2601,894c0-11,3-14,6-6c3,7,2,16-1,19C2603,911,2600,905,2601,894z"/>
	<path class="st0" d="M1840,881c0-6,4-13,10-16s7,1,4,9C1847,892,1840,895,1840,881z"/>
	<path class="st0" d="M841,863c7-12,15-20,18-17c3,2-3,12-13,22C829,884,828,884,841,863z"/>
	<path class="st0" d="M1726,871c-4-7-5-15-2-18c9-9,19,4,14,18C1734,882,1732,882,1726,871z"/>
	<path class="st0" d="M2586,849c-15-15-17-22-8-29c7-6,10-7,7-3c-3,3,2,15,12,25C2619,867,2610,872,2586,849z"/>
	<path class="st0" d="M1625,850c3-5,8-10,11-10c2,0,4,5,4,10c0,6-5,10-11,10C1624,860,1622,856,1625,850z"/>
	<path class="st0" d="M2149,833c-13-17-13-17,6-3c11,8,22,16,24,17c2,2,0,3-6,3S2156,842,2149,833z"/>
	<path class="st0" d="M2897,823c-3-10-8-34-11-54c-4-21-16-49-27-63c-14-17-16-26-7-24c7,2,12-4,11-12c-3-36-30-118-47-145
		c-61-95-128-190-190-265c-7-9-15-22-19-30s-18-35-32-59c-33-58-32-74,1-25c28,42,75,100,121,150c55,60,79,89,82,99c1,6,9,14,18,18
		c10,6,13,17,9,35c-4,17-3,22,2,14c7-10,11-10,22,3c7,8,9,15,5,15c-5,0-1,8,7,18c32,36,62,112,39,97c-6-3-5,10,0,31c6,19,8,47,4,62
		c-3,17,0,35,9,47c9,11,16,29,16,41c0,11,5,25,10,30c8,8,6,15-4,23C2904,839,2901,838,2897,823z"/>
	<path class="st0" d="M2301,804c0-11,3-14,6-6c3,7,2,16-1,19C2303,821,2300,815,2301,804z"/>
	<path class="st0" d="M2846,805c-9-26-7-32,5-12c6,10,9,21,6,23C2855,819,2850,814,2846,805z"/>
	<path class="st0" d="M1721,784c0-11,3-14,6-6c3,7,2,16-1,19C1723,801,1720,795,1721,784z"/>
	<path class="st0" d="M2118,763c7-3,16-2,19,1c4,3-2,6-13,5C2113,769,2110,766,2118,763z"/>
	<path class="st0" d="M2830,756c0-8,5-18,10-21c6-3,10,1,10,9s-4,18-10,21C2835,768,2830,764,2830,756z"/>
	<path class="st0" d="M2030,756c0-2,9-6,20-9s20-1,20,4s-9,9-20,9S2030,758,2030,756z"/>
	<path class="st0" d="M2080,756c0-2,7-9,15-16c9-7,15-8,15-2c0,5-7,12-15,16C2087,757,2080,758,2080,756z"/>
	<path class="st0" d="M2534,699c-12-32-17-59-12-59s11,14,15,30c3,17,9,30,13,30c10,0,19,49,11,54C2557,757,2545,732,2534,699z"/>
	<path class="st0" d="M900,720c0-10-7-23-15-30s-15-19-15-26c0-27,16-14,36,29c15,32,17,44,7,44C906,737,900,729,900,720z"/>
	<path class="st0" d="M1683,730c2-8,12-16,23-17c13-2,15-1,4,4c-8,3-19,11-23,17C1681,741,1680,740,1683,730z"/>
	<path class="st0" d="M1994,718c-4-6-3-8,4-4c5,3,13,0,15-6c3-8,6-6,6,5C2020,732,2005,736,1994,718z"/>
	<path class="st0" d="M1966,711c-4-7-5-15-2-18c9-9,19,4,14,18C1974,722,1972,722,1966,711z"/>
	<path class="st0" d="M2913,713c-25-9-13-22,16-17c16,3,38,1,50-5c14-8,21-8,21-1C3000,709,2941,725,2913,713z"/>
	<path class="st0" d="M2347,703c-4-3-7-16-6-27c0-19,1-19,10,3C2361,703,2359,715,2347,703z"/>
	<path class="st0" d="M2050,689c0-5,5-7,10-4c6,3,10,8,10,11c0,2-4,4-10,4C2055,700,2050,695,2050,689z"/>
	<path class="st0" d="M2216,683c-6-14-5-15,5-6c7,7,10,15,7,18S2219,693,2216,683z"/>
	<path class="st0" d="M1904,665c-10-8-15-15-10-15s3-7-4-15s-9-15-4-15s17,14,26,30C1932,684,1931,685,1904,665z"/>
	<path class="st0" d="M799,639c-19-9-37-15-41-12c-5,2-8-1-8-6c0-6,3-11,8-11c15,0,102,34,102,40C860,662,833,657,799,639z"/>
	<path class="st0" d="M1860,639c0-5,5-7,10-4c6,3,10,8,10,11c0,2-4,4-10,4C1865,650,1860,645,1860,639z"/>
	<path class="st0" d="M2899,633c-13-16-12-17,4-4c9,7,17,15,17,17C2920,654,2912,649,2899,633z"/>
	<path class="st0" d="M2549,635c-1-3-2-8-3-12c-1-5-5-14-9-20c-5-8-4-13,2-13s11,3,12,8c0,4,2,15,4,25C2558,638,2552,649,2549,635z"
		/>
	<path class="st0" d="M2499,620c-3-20-4-25-14-40c-7-13-6-13,7-2c18,15,30,52,17,52C2504,630,2499,626,2499,620z"/>
	<path class="st0" d="M1800,608c0-10-5-18-11-18c-5,0-7,5-3,12s3,8-4,4c-11-7-17-36-8-36c12,0,76,31,81,40c8,12-5,13-25,0
		c-9-6-17-5-22,3S1800,619,1800,608z"/>
	<path class="st0" d="M715,598c-11-6-24-17-28-25c-5-7-12-11-18-8c-5,4-9,1-9-4c0-16,7-14,43,11c18,13,34,24,36,25c2,2,2,5,0,7
		C737,607,726,604,715,598z"/>
	<path class="st0" d="M815,590c27-12,35-12,35,0c0,6-12,10-27,9C798,599,797,598,815,590z"/>
	<path class="st0" d="M2095,590c4-6,11-8,16-5c14,9,11,15-7,15C2096,600,2092,595,2095,590z"/>
	<path class="st0" d="M2276,583c-6-14-5-15,5-6c7,7,10,15,7,18S2279,593,2276,583z"/>
	<path class="st0" d="M2250,582c0-4-12-15-27-25c-28-18-28-18-3-11c24,6,40,21,40,37c0,4-2,7-5,7S2250,587,2250,582z"/>
	<path class="st0" d="M1711,556c-9-11-6-12,14-8c14,2,28,8,31,13C1765,576,1723,571,1711,556z"/>
	<path class="st0" d="M2463,548c-1-12-7-24-14-28c-7-5-7-10-2-13c13-8,37,43,26,54C2468,566,2464,560,2463,548z"/>
	<path class="st0" d="M610,534c-14-8-17-13-7-10s25,6,33,6s14,5,14,10C650,554,640,552,610,534z"/>
	<path class="st0" d="M1238,543c7-3,16-2,19,1c4,3-2,6-13,5C1233,549,1230,546,1238,543z"/>
	<path class="st0" d="M1650,541c0-5,9-7,20-4s20,7,20,9s-9,4-20,4S1650,546,1650,541z"/>
	<path class="st0" d="M1164,517c21-31,29-94,18-149c-9-44,1-92,12-58c11,37,13,60,6,60c-5,0-4,14,2,30c8,24,6,41-8,80
		c-10,27-24,52-31,54C1153,538,1153,534,1164,517z"/>
	<path class="st0" d="M1600,530c0-5,5-10,11-10c5,0,7,5,4,10c-3,6-8,10-11,10C1602,540,1600,536,1600,530z"/>
	<path class="st0" d="M1351,527c2-1,12-9,22-16c14-12,17-11,17,3c0,10-8,16-22,16C1356,530,1349,529,1351,527z"/>
	<path class="st0" d="M716,998c-6-22-7-23-21-4c-19,25-28,17-10-8c17-23,45-14,45,14C730,1026,724,1025,716,998z"/>
	<path class="st0" d="M519,497c-60-37-119-81-119-91c0-5,10-1,23,10c26,24,90,65,132,88c17,8,23,15,15,15S539,509,519,497z"/>
	<path class="st0" d="M2425,491c-3-5-2-12,3-15s9,1,9,9C2437,502,2434,504,2425,491z"/>
	<path class="st0" d="M2991,455c-2-17-141-153-141-140c0,11-26-19-33-38c-4-11-12-15-18-11c-8,4-9,3-5-4c10-16,36-15,36,1
		c0,7,9,18,19,24c18,11,18,10,8-18c-6-16-18-29-27-29c-8,0-23-7-33-14c-16-13-16-14,0-20c12-5,34,11,80,56c58,58,74,87,43,80
		c-11-3-11,0,0,12c14,17,25,22,15,7c-3-5-1-12,5-16c12-7,46,23,36,32c-3,3,1,11,10,18c10,7,14,21,11,40C2995,452,2992,460,2991,455z
		 M2891,297c-8-8-11-7-11,4c0,20,13,34,18,19C2901,313,2897,303,2891,297z"/>
	<path class="st0" d="M2390,419c0-5,5-7,10-4c6,3,10,8,10,11c0,2-4,4-10,4C2395,430,2390,425,2390,419z"/>
	<path class="st0" d="M2426,415c-9-26-7-32,5-12c6,10,9,21,6,23C2435,429,2430,424,2426,415z"/>
	<path class="st0" d="M750,410c0-5,5-10,10-10c6,0,10,5,10,10c0,6-4,10-10,10C755,420,750,416,750,410z"/>
	<path class="st0" d="M376,393c-6-14-5-15,5-6c7,7,10,15,7,18S379,403,376,393z"/>
	<path class="st0" d="M2405,360c-3-5-1-10,4-10c6,0,11,5,11,10c0,6-2,10-4,10C2413,370,2408,366,2405,360z"/>
	<path class="st0" d="M320,350c-9-6-10-10-3-10c6,0,15,5,18,10C343,362,339,362,320,350z"/>
	<path class="st0" d="M269,293c-13-16-12-17,4-4c9,7,17,15,17,17C290,314,282,309,269,293z"/>
	<path class="st0" d="M693,274c-6-13-7-24-3-24c9,0,25,39,18,45C706,297,700,288,693,274z"/>
	<path class="st0" d="M1170,278c0-7-11-39-24-71c-13-31-20-60-15-63s15,10,23,28c15,36,29,118,21,118C1172,290,1170,284,1170,278z"
		/>
	<path class="st0" d="M243,254c-7-7-13-19-13-26s7-2,16,10C264,264,262,275,243,254z"/>
	<path class="st0" d="M1985,260c-3-5-1-10,4-10c6,0,11,5,11,10c0,6-2,10-4,10C1993,270,1988,266,1985,260z"/>
	<path class="st0" d="M2305,250c-3-6,1-7,9-4c18,7,21,14,7,14C2315,260,2308,256,2305,250z"/>
	<path class="st0" d="M2745,218c-20-18-55-52-80-75c-24-24-49-43-55-43c-5,0-10-4-10-9s-22-26-50-47c-27-21-48-40-45-42
		c2-3,18,7,35,22c17,14,35,26,39,26c5,0,20,11,35,25s30,25,34,25s16,13,27,29c10,16,23,27,27,25c4-3,13,4,20,16c7,11,18,20,25,20
		c19,0-6-48-29-55c-10-4-18-10-18-15s-12-17-27-25c-16-9-19-13-8-10c18,6,18,5-3-15c-12-12-27-18-32-15c-6,3-10,4-10,1s9-10,20-16
		s19-7,18-3c-2,4,6,17,17,28c11,12,37,40,58,63c21,24,41,40,46,38c5-3,11,3,14,14c4,15,0,20-13,20c-11,0-22,5-25,10c-4,6-3,10,2,9
		c13-3,43,12,43,22C2800,259,2779,250,2745,218z"/>
	<path class="st0" d="M665,230c3-5,8-10,11-10c2,0,4,5,4,10c0,6-5,10-11,10C664,240,662,236,665,230z"/>
	<path class="st0" d="M545,219c-4-6-5-12-2-15c2-3,7,2,10,11C560,232,554,235,545,219z"/>
	<path class="st0" d="M187,164c-10-13-14-24-10-24c9,0,36,40,31,45C206,187,197,177,187,164z"/>
	<path class="st0" d="M2281,174c0-11,3-14,6-6c3,7,2,16-1,19C2283,191,2280,185,2281,174z"/>
	<path class="st0" d="M690,136c0-8,8-13,18-12c10,0,16-5,14-13c-3-12-1-12,14,0c16,13,17,12,11-5c-6-16-5-17,8-6c10,8,15,9,15,1
		c0-6,7-11,15-11s15-7,15-16s-5-12-12-8s-8,3-4-4c5-9,13-9,28-1l21,11l-24,19c-23,18-103,59-114,59C692,150,690,144,690,136z"/>
	<path class="st0" d="M1079,123c-13-16-12-17,4-4c9,7,17,15,17,17C1100,144,1092,139,1079,123z"/>
	<path class="st0" d="M1163,95c-6-14-8-27-4-29c4-3,12,8,18,25C1191,126,1180,130,1163,95z"/>
	<path class="st0" d="M2982,82c-11-25-11-25,4-10c9,9,15,21,13,27S2989,97,2982,82z"/>
	<path class="st0" d="M2520,92c0-4-18-26-40-50c-22-23-36-42-32-42c8,0,34,26,76,78c11,12,14,22,8,22C2525,100,2520,97,2520,92z"/>
	<path class="st0" d="M2195,80c4-6,11-8,16-5c14,9,11,15-7,15C2196,90,2192,85,2195,80z"/>
	<path class="st0" d="M890,46c0-2,8-10,18-17c15-13,16-12,3,4S890,54,890,46z"/>
	<path class="st0" d="M2605,20c-3-5,1-10,10-10s13,5,10,10c-3,6-8,10-10,10S2608,26,2605,20z"/>
</g>
</svg>
